# xmcd CD database file generated by OrangeCD 5.2
#
# Track frame offsets:
#	150
#	16188
#	32064
#	47120
#	62189
#	78412
#	94512
#	109287
#	123841
#	135027
#	147036
#	162238
#	177866
#	191963
#	204254
#	217589
#	236166
#	257161
#	273948
#	289433
#	308267
#	326870
#
# Disc length: 4571 seconds
#
# Revision: 0
# Processed by: cddbd v1.5.1PL0 Copyright (c) Steve Scherf et al.
# Submitted via: OrangeCD 5.2
#
DISCID=3111d916
DTITLE=George Jones - Dispatches: 1990-99 A Critical Collection
DYEAR=2005
DGENRE=Country
TTITLE0=Hell Stays Open (All Night Long)
TTITLE1=I Sleep Just Like A Baby
TTITLE2=All Fall Down
TTITLE3=Angels Don't Cry
TTITLE4=You Couldn't Get The Picture
TTITLE5=Come Home To Me
TTITLE6=Where The Tall Grass Grows
TTITLE7=She Loved A Lot In Her Time
TTITLE8=You Done Me Wrong
TTITLE9=There's The Door
TTITLE10=The Visit
TTITLE11=Tear Me Out Of The Picture
TTITLE12=A Thousand Times A Day
TTITLE13=Hello Darlin
TTITLE14=Ít Ain't Gonna Worry My Mind
TTITLE15=Tied To A Stone
TTITLE16=Wild Irish Rose
TTITLE17=When Did You Stop Loving Me
TTITLE18=Choices
TTITLE19=Our Bed Of Roses
TTITLE20=The Cold Hard Truth
TTITLE21=When The Last Curtain Falls
EXTD=
EXTT0=
EXTT1=
EXTT2=
EXTT3=
EXTT4=
EXTT5=
EXTT6=
EXTT7=
EXTT8=
EXTT9=
EXTT10=
EXTT11=
EXTT12=
EXTT13=
EXTT14=
EXTT15=
EXTT16=
EXTT17=
EXTT18=
EXTT19=
EXTT20=
EXTT21=
PLAYORDER=
